HIERARCHY
ROOT Hips
{
	OFFSET 0.000000 0.000000 0.000000
	CHANNELS 6 Xposition Yposition Zposition Yrotation Xrotation Zrotation 
	JOINT LeftHip
	{
		OFFSET 0.094196 0.000343 -0.000038
		CHANNELS 3 Yrotation Xrotation Zrotation
		JOINT LeftKnee
		{
			OFFSET 0.000000 -0.468901 0.000041
			CHANNELS 3 Yrotation Xrotation Zrotation
			JOINT LeftAnkle
			{
				OFFSET 0.000000 -0.397674 0.000438
				CHANNELS 3 Yrotation Xrotation Zrotation
				JOINT LeftToe
				{
					OFFSET 0.000000 -0.090712 0.195501
					CHANNELS 3 Yrotation Xrotation Zrotation
					End Site
					{
						OFFSET 0.000000 0.000000 0.000000
					}
				}
			}
		}
	}
	JOINT RightHip
	{
		OFFSET -0.094196 0.000364 -0.000040
		CHANNELS 3 Yrotation Xrotation Zrotation
		JOINT RightKnee
		{
			OFFSET 0.000000 -0.468901 0.000041
			CHANNELS 3 Yrotation Xrotation Zrotation
			JOINT RightAnkle
			{
				OFFSET 0.000000 -0.397674 0.000438
				CHANNELS 3 Yrotation Xrotation Zrotation
				JOINT RightToe
				{
					OFFSET 0.000000 -0.090712 0.195501
					CHANNELS 3 Yrotation Xrotation Zrotation
					End Site
					{
						OFFSET 0.000000 0.000000 0.000000
					}
				}
			}
		}
	}
	JOINT Chest
	{
		OFFSET 0.000000 0.113860 -0.012651
		CHANNELS 3 Yrotation Xrotation Zrotation
		JOINT Chest3
		{
			OFFSET -0.002400 0.210882 -0.005802
			CHANNELS 3 Yrotation Xrotation Zrotation
			JOINT Chest4
			{
				OFFSET 0.000000 0.100637 -0.000145
				CHANNELS 3 Yrotation Xrotation Zrotation
				JOINT Neck
				{
					OFFSET 0.000000 0.138831 0.000000
					CHANNELS 3 Yrotation Xrotation Zrotation
					JOINT Head
					{
						OFFSET 0.000000 0.095420 0.000176
						CHANNELS 3 Yrotation Xrotation Zrotation
						End Site
						{
							OFFSET 0.000000 0.000000 0.000000
						}
					}
				}
				JOINT LeftCollar
				{
					OFFSET 0.029338 0.077908 0.000000
					CHANNELS 3 Yrotation Xrotation Zrotation
					JOINT LeftShoulder
					{
						OFFSET 0.140442 0.000000 0.000000
						CHANNELS 3 Yrotation Xrotation Zrotation
						JOINT LeftElbow
						{
							OFFSET 0.303173 0.000000 0.000000
							CHANNELS 3 Yrotation Xrotation Zrotation
							JOINT LeftWrist
							{
								OFFSET 0.261212 0.000000 0.000049
								CHANNELS 3 Yrotation Xrotation Zrotation
								End Site
								{
									OFFSET 0.000000 0.000000 0.000000
								}
							}
						}
					}
				}
				JOINT RightCollar
				{
					OFFSET -0.029338 0.077908 0.000000
					CHANNELS 3 Yrotation Xrotation Zrotation
					JOINT RightShoulder
					{
						OFFSET -0.140442 0.000000 0.000000
						CHANNELS 3 Yrotation Xrotation Zrotation
						JOINT RightElbow
						{
							OFFSET -0.303173 0.000000 0.000000
							CHANNELS 3 Yrotation Xrotation Zrotation
							JOINT RightWrist
							{
								OFFSET -0.261212 0.000000 0.000049
								CHANNELS 3 Yrotation Xrotation Zrotation
								End Site
								{
									OFFSET 0.000000 0.000000 0.000000
								}
							}
						}
					}
				}
			}
		}
	}
}
MOTION
Frames: 8
Frame Time: 0.016667
0.000000 0.000000 0.000000 175.824937 359.290978 358.603025 6.732595 0.239582 4.939731 0.599593 7.342374 0.052797 9.346932 353.664475 356.186915 359.807881 359.208316 359.125781 352.568178 0.465522 356.955786 359.749844 8.110433 358.842429 350.162064 354.917916 5.059870 359.687878 359.606339 359.777901 359.854746 5.562480 1.665333 359.495484 359.023902 1.499523 0.129334 7.885923 0.626818 359.437996 22.409107 0.294824 359.364720 6.528810 0.691335 353.870428 3.455900 347.966956 356.650567 339.650032 285.344931 2.014369 17.692305 10.664961 357.725007 4.472208 14.441811 8.922334 3.899355 14.523091 2.443922 338.856120 65.782225 346.743716 11.223697 347.995405 357.679317 7.736608 342.305645 
0.000000 0.000000 0.000000 175.928084 359.293433 358.608177 6.709329 0.280390 4.949068 0.582062 7.350933 0.053965 9.290533 353.620686 356.167587 359.824695 359.229969 359.137311 352.534336 0.544010 356.950501 359.745026 8.112252 358.841153 350.091599 354.832571 5.073733 359.692126 359.618769 359.761954 359.855579 5.572271 1.649564 359.499568 359.032297 1.484498 0.202919 7.885773 0.628453 359.267211 22.115488 0.422446 359.017661 5.914729 0.982459 353.953007 3.267972 347.855758 357.416297 340.422866 285.118415 2.289775 13.568129 10.341987 357.026968 3.495180 16.754894 8.521711 3.525308 14.394867 1.233942 339.611970 66.127135 346.975411 9.599255 348.421015 357.180825 7.468177 342.825585 
0.000000 0.000000 0.000000 176.038821 359.298458 358.610516 6.682462 0.313609 4.959441 0.564634 7.358633 0.055128 9.228999 353.580366 356.150669 359.832551 359.249011 359.149312 352.497796 0.618573 356.947366 359.739280 8.110817 358.841876 350.015099 354.755058 5.088635 359.691740 359.629147 359.742926 359.857016 5.588998 1.626006 359.505192 359.047267 1.462810 0.169103 7.888423 0.625028 359.127833 21.819948 0.549787 358.618151 5.343723 1.357276 353.950951 3.379921 347.767000 358.057164 340.815425 285.026486 2.735734 9.938105 10.037439 356.319758 3.038193 18.507745 8.135613 3.202410 14.285082 0.162950 340.294561 66.409546 347.198682 8.337052 348.702336 357.127579 7.388340 343.326012 
0.000000 0.000000 0.000000 176.147818 359.304699 358.613090 6.655806 0.337317 4.971601 0.548247 7.367420 0.056057 9.167088 353.545316 356.134100 359.827069 359.261719 359.162386 352.461969 0.679698 356.947482 359.733922 8.118638 358.843998 349.940583 354.681130 5.099799 359.680783 359.636554 359.726007 359.858160 5.614682 1.602899 359.510726 359.070513 1.442064 0.069862 7.875347 0.619295 359.007250 21.537216 0.665024 358.190746 4.804225 1.761217 354.002698 3.403302 347.687733 358.660024 341.280462 285.017710 3.232309 7.029602 9.702222 355.723192 2.733889 19.471617 7.717265 2.928192 14.175638 359.232433 340.977187 66.711418 347.563207 7.397436 348.882143 357.331032 7.424579 343.663101 
0.000000 0.000000 0.000000 176.253935 359.311181 358.617193 6.630124 0.350719 4.986325 0.533119 7.377741 0.056676 9.104889 353.516967 356.116787 359.813481 359.266093 359.176356 352.428178 0.732212 356.951719 359.729571 8.123165 358.847464 349.868351 354.618278 5.103826 359.665272 359.639376 359.713357 359.858759 5.649061 1.583616 359.515575 359.101625 1.425274 359.930339 7.861730 0.611544 358.888985 21.261345 0.762051 357.770388 4.279048 2.144877 354.149684 3.238134 347.625169 359.390324 341.951237 285.023062 3.551652 5.052668 9.362374 355.285578 2.584647 19.785957 7.404790 2.796105 14.114007 358.547174 341.511541 66.934744 347.906144 6.424599 349.044931 357.720317 7.471022 343.794203 
0.000000 0.000000 0.000000 176.358482 359.318973 358.621393 6.604603 0.355328 5.002810 0.519229 7.387611 0.057084 9.042197 353.494742 356.099766 359.798030 359.263199 359.190004 352.395260 0.776189 356.959290 359.726114 8.125921 358.852257 349.797405 354.565087 5.103145 359.653918 359.636001 359.704409 359.859161 5.690276 1.565515 359.520231 359.138903 1.409843 359.752828 7.849724 0.603454 358.774683 20.990743 0.845252 357.404819 3.758411 2.463517 354.344339 3.151818 347.591318 0.106758 342.583079 285.136346 3.693230 4.013691 9.008020 355.017703 2.546601 19.707566 7.168390 2.651242 14.080323 358.021514 341.987167 67.098912 348.167199 5.547359 349.167134 358.162712 7.374804 343.828883 
0.000000 0.000000 0.000000 176.455799 359.329897 358.624421 6.580643 0.352844 5.019386 0.507256 7.395025 0.057450 8.983311 353.477578 356.084085 359.778719 359.255320 359.202129 352.364322 0.806637 356.968971 359.723183 8.135256 358.857830 349.731587 354.517743 5.100523 359.646196 359.625633 359.699023 359.859576 5.733413 1.548100 359.524665 359.177811 1.395118 359.570320 7.837639 0.596933 358.660325 20.729611 0.918692 357.100711 3.246171 2.707109 354.550572 3.152381 347.563668 0.732363 343.137385 285.271413 3.775861 3.687351 8.741717 354.825379 2.710877 19.534509 7.030991 2.518802 14.072209 357.660952 342.413365 67.222186 348.360542 4.779589 349.239708 358.538463 7.125360 343.706975 
0.000000 0.000000 0.000000 176.548095 359.345692 358.626757 6.557569 0.342487 5.034492 0.497089 7.397894 0.057663 8.927410 353.466768 356.070537 359.759864 359.244860 359.212805 352.334401 0.822129 356.979556 359.720582 8.150835 358.864269 349.669754 354.477084 5.096930 359.645305 359.608544 359.697594 359.860009 5.778542 1.530864 359.529021 359.218487 1.380538 359.378939 7.825368 0.591872 358.546268 20.474986 0.981873 356.881085 2.746675 2.880471 354.718950 3.180999 347.520858 1.286000 343.611416 285.423435 3.975420 4.164300 8.601956 354.688661 2.828449 19.481742 6.957727 2.389502 14.067839 357.433759 342.811885 67.372404 348.544490 4.220550 349.224367 358.840165 6.848839 343.302987 
